<svg xmlns="http://www.w3.org/2000/svg" xmlns:xlink="http://www.w3.org/1999/xlink" width="726pt" height="252pt" viewBox="0.00 0.00 726.00 251.60">
<g id="graph0" class="graph" transform="scale(1 1) rotate(0) translate(4 247.6)">
<title>G</title>
<polygon fill="#fdf1e4" stroke="none" points="-4,4 -4,-247.6 722,-247.6 722,4 -4,4"/>
<g id="clust1" class="cluster">
<title>cluster_inputs</title>
<polygon fill="#fdf1e4" stroke="black" stroke-dasharray="5,2" points="212,-157.8 212,-235.6 508,-235.6 508,-157.8 212,-157.8"/>
<text text-anchor="middle" x="451.98" y="-166" font-family="Times,serif" font-size="14.00">Workflow Inputs</text>
</g>
<g id="clust2" class="cluster">
<title>cluster_outputs</title>
<polygon fill="#fdf1e4" stroke="black" stroke-dasharray="5,2" points="8,-8 8,-85.8 710,-85.8 710,-8 8,-8"/>
<text text-anchor="middle" x="649.31" y="-16.2" font-family="Times,serif" font-size="14.00">Workflow Outputs</text>
</g>
<!-- mesh -->
<g id="node1" class="node">
<title>mesh</title>
<polygon fill="#c30000" stroke="black" points="220,-191.1 220,-227.1 274,-227.1 274,-191.1 220,-191.1"/>
<text text-anchor="middle" x="246.78" y="-204.9" font-family="Times,serif" font-size="14.00">mesh</text>
</g>
<!-- tumour_position_reporting -->
<g id="node4" class="node">
<title>tumour_position_reporting</title>
<ellipse fill="none" stroke="black" cx="338" cy="-131.8" rx="115.11" ry="18"/>
<text text-anchor="middle" x="338" y="-127.6" font-family="Times,serif" font-size="14.00">tumour_position_reporting</text>
</g>
<!-- mesh&#45;&gt;tumour_position_reporting -->
<g id="edge1" class="edge">
<title>mesh-&gt;tumour_position_reporting</title>
<path fill="none" stroke="black" d="M256.16,-190.94C262.54,-180.29 271.88,-166.94 283,-157.8 284.12,-156.88 285.27,-155.99 286.46,-155.12"/>
<polygon fill="black" stroke="black" points="288.24,-158.14 294.78,-149.81 284.47,-152.24 288.24,-158.14"/>
</g>
<!-- nipple_points -->
<g id="node2" class="node">
<title>nipple_points</title>
<polygon fill="#c30000" stroke="black" points="291.89,-191.1 291.89,-227.1 384.11,-227.1 384.11,-191.1 291.89,-191.1"/>
<text text-anchor="middle" x="338" y="-204.9" font-family="Times,serif" font-size="14.00">nipple_points</text>
</g>
<!-- nipple_points&#45;&gt;tumour_position_reporting -->
<g id="edge2" class="edge">
<title>nipple_points-&gt;tumour_position_reporting</title>
<path fill="none" stroke="black" d="M338,-190.64C338,-181.99 338,-171.32 338,-161.51"/>
<polygon fill="black" stroke="black" points="341.5,-161.68 338,-151.68 334.5,-161.68 341.5,-161.68"/>
</g>
<!-- tumour_centre -->
<g id="node3" class="node">
<title>tumour_centre</title>
<polygon fill="#c30000" stroke="black" points="402.18,-191.1 402.18,-227.1 499.82,-227.1 499.82,-191.1 402.18,-191.1"/>
<text text-anchor="middle" x="451" y="-204.9" font-family="Times,serif" font-size="14.00">tumour_centre</text>
</g>
<!-- tumour_centre&#45;&gt;tumour_position_reporting -->
<g id="edge3" class="edge">
<title>tumour_centre-&gt;tumour_position_reporting</title>
<path fill="none" stroke="black" d="M433.78,-190.82C422.76,-180.38 407.81,-167.3 393,-157.8 391.18,-156.63 389.3,-155.49 387.37,-154.38"/>
<polygon fill="black" stroke="black" points="389.29,-151.44 378.83,-149.79 385.98,-157.6 389.29,-151.44"/>
</g>
<!-- clock_time -->
<g id="node5" class="node">
<title>clock_time</title>
<polygon fill="#c30000" stroke="black" points="15.9,-41.3 15.9,-77.3 94.1,-77.3 94.1,-41.3 15.9,-41.3"/>
<text text-anchor="middle" x="55" y="-55.1" font-family="Times,serif" font-size="14.00">clock_time</text>
</g>
<!-- tumour_position_reporting&#45;&gt;clock_time -->
<g id="edge4" class="edge">
<title>tumour_position_reporting-&gt;clock_time</title>
<path fill="none" stroke="black" d="M248.75,-120.13C204.13,-113.2 149.82,-102.3 103,-85.8 100.31,-84.85 97.59,-83.78 94.88,-82.61"/>
<polygon fill="black" stroke="black" points="96.5,-79.5 85.96,-78.42 93.52,-85.84 96.5,-79.5"/>
</g>
<!-- tumour_nipple_distance -->
<g id="node6" class="node">
<title>tumour_nipple_distance</title>
<polygon fill="#c30000" stroke="black" points="112.35,-41.3 112.35,-77.3 263.65,-77.3 263.65,-41.3 112.35,-41.3"/>
<text text-anchor="middle" x="188" y="-55.1" font-family="Times,serif" font-size="14.00">tumour_nipple_distance</text>
</g>
<!-- tumour_position_reporting&#45;&gt;tumour_nipple_distance -->
<g id="edge5" class="edge">
<title>tumour_position_reporting-&gt;tumour_nipple_distance</title>
<path fill="none" stroke="black" d="M302.83,-114.27C282.74,-104.83 257.27,-92.86 235.43,-82.59"/>
<polygon fill="black" stroke="black" points="236.95,-79.44 226.41,-78.35 233.97,-85.77 236.95,-79.44"/>
</g>
<!-- tumour_quadrant -->
<g id="node7" class="node">
<title>tumour_quadrant</title>
<polygon fill="#c30000" stroke="black" points="281.79,-41.3 281.79,-77.3 394.21,-77.3 394.21,-41.3 281.79,-41.3"/>
<text text-anchor="middle" x="338" y="-55.1" font-family="Times,serif" font-size="14.00">tumour_quadrant</text>
</g>
<!-- tumour_position_reporting&#45;&gt;tumour_quadrant -->
<g id="edge6" class="edge">
<title>tumour_position_reporting-&gt;tumour_quadrant</title>
<path fill="none" stroke="black" d="M338,-113.37C338,-106.03 338,-97.29 338,-89.04"/>
<polygon fill="black" stroke="black" points="341.5,-89.04 338,-79.04 334.5,-89.04 341.5,-89.04"/>
</g>
<!-- tumour_rib_distance -->
<g id="node8" class="node">
<title>tumour_rib_distance</title>
<polygon fill="#c30000" stroke="black" points="412.07,-41.3 412.07,-77.3 543.93,-77.3 543.93,-41.3 412.07,-41.3"/>
<text text-anchor="middle" x="478" y="-55.1" font-family="Times,serif" font-size="14.00">tumour_rib_distance</text>
</g>
<!-- tumour_position_reporting&#45;&gt;tumour_rib_distance -->
<g id="edge7" class="edge">
<title>tumour_position_reporting-&gt;tumour_rib_distance</title>
<path fill="none" stroke="black" d="M371.18,-114.09C389.77,-104.73 413.2,-92.93 433.38,-82.77"/>
<polygon fill="black" stroke="black" points="434.89,-85.93 442.25,-78.3 431.74,-79.68 434.89,-85.93"/>
</g>
<!-- tumour_skin_distance -->
<g id="node9" class="node">
<title>tumour_skin_distance</title>
<polygon fill="#c30000" stroke="black" points="562.18,-41.3 562.18,-77.3 701.82,-77.3 701.82,-41.3 562.18,-41.3"/>
<text text-anchor="middle" x="632" y="-55.1" font-family="Times,serif" font-size="14.00">tumour_skin_distance</text>
</g>
<!-- tumour_position_reporting&#45;&gt;tumour_skin_distance -->
<g id="edge8" class="edge">
<title>tumour_position_reporting-&gt;tumour_skin_distance</title>
<path fill="none" stroke="black" d="M411.1,-117.5C452.91,-109.39 506.19,-98.22 553,-85.8 558.52,-84.34 564.22,-82.72 569.92,-81.02"/>
<polygon fill="black" stroke="black" points="570.82,-84.4 579.37,-78.13 568.78,-77.71 570.82,-84.4"/>
</g>
</g>
</svg>