<svg xmlns="http://www.w3.org/2000/svg" xmlns:xlink="http://www.w3.org/1999/xlink" width="451pt" height="252pt" viewBox="0.00 0.00 451.00 251.60">
<g id="graph0" class="graph" transform="scale(1 1) rotate(0) translate(4 247.6)">
<title>G</title>
<polygon fill="#fdf1e4" stroke="none" points="-4,4 -4,-247.6 447,-247.6 447,4 -4,4"/>
<g id="clust1" class="cluster">
<title>cluster_inputs</title>
<polygon fill="#fdf1e4" stroke="black" stroke-dasharray="5,2" points="8,-157.8 8,-235.6 435,-235.6 435,-157.8 8,-157.8"/>
<text text-anchor="middle" x="378.98" y="-166" font-family="Times,serif" font-size="14.00">Workflow Inputs</text>
</g>
<g id="clust2" class="cluster">
<title>cluster_outputs</title>
<polygon fill="#fdf1e4" stroke="black" stroke-dasharray="5,2" points="127,-8 127,-85.8 319,-85.8 319,-8 127,-8"/>
<text text-anchor="middle" x="258.31" y="-16.2" font-family="Times,serif" font-size="14.00">Workflow Outputs</text>
</g>
<!-- bdm_file -->
<g id="node1" class="node">
<title>bdm_file</title>
<polygon fill="#c30000" stroke="black" points="15.73,-191.1 15.73,-227.1 82.27,-227.1 82.27,-191.1 15.73,-191.1"/>
<text text-anchor="middle" x="49" y="-204.9" font-family="Times,serif" font-size="14.00">bdm_file</text>
</g>
<!-- open_gems_and_load_experiment_file -->
<g id="node5" class="node">
<title>open_gems_and_load_experiment_file</title>
<ellipse fill="none" stroke="black" cx="223" cy="-131.8" rx="161.21" ry="18"/>
<text text-anchor="middle" x="223" y="-127.6" font-family="Times,serif" font-size="14.00">open_gems_and_load_experiment_file</text>
</g>
<!-- bdm_file&#45;&gt;open_gems_and_load_experiment_file -->
<g id="edge1" class="edge">
<title>bdm_file-&gt;open_gems_and_load_experiment_file</title>
<path fill="none" stroke="black" d="M58.92,-190.96C66.32,-179.75 77.46,-165.75 91,-157.8 96.22,-154.74 101.73,-152.04 107.43,-149.66"/>
<polygon fill="black" stroke="black" points="108.33,-153.06 116.44,-146.25 105.85,-146.51 108.33,-153.06"/>
</g>
<!-- electrode_layout -->
<g id="node2" class="node">
<title>electrode_layout</title>
<polygon fill="#c30000" stroke="black" points="100.35,-191.1 100.35,-227.1 209.65,-227.1 209.65,-191.1 100.35,-191.1"/>
<text text-anchor="middle" x="155" y="-204.9" font-family="Times,serif" font-size="14.00">electrode_layout</text>
</g>
<!-- electrode_layout&#45;&gt;open_gems_and_load_experiment_file -->
<g id="edge2" class="edge">
<title>electrode_layout-&gt;open_gems_and_load_experiment_file</title>
<path fill="none" stroke="black" d="M170.77,-190.64C179.35,-181.13 190.14,-169.19 199.67,-158.63"/>
<polygon fill="black" stroke="black" points="202.2,-161.06 206.3,-151.29 197,-156.37 202.2,-161.06"/>
</g>
<!-- experiment_records -->
<g id="node3" class="node">
<title>experiment_records</title>
<polygon fill="#c30000" stroke="black" points="227.41,-191.1 227.41,-227.1 354.59,-227.1 354.59,-191.1 227.41,-191.1"/>
<text text-anchor="middle" x="291" y="-204.9" font-family="Times,serif" font-size="14.00">experiment_records</text>
</g>
<!-- experiment_records&#45;&gt;open_gems_and_load_experiment_file -->
<g id="edge3" class="edge">
<title>experiment_records-&gt;open_gems_and_load_experiment_file</title>
<path fill="none" stroke="black" d="M275.23,-190.64C266.65,-181.13 255.86,-169.19 246.33,-158.63"/>
<polygon fill="black" stroke="black" points="249,-156.37 239.7,-151.29 243.8,-161.06 249,-156.37"/>
</g>
<!-- photos -->
<g id="node4" class="node">
<title>photos</title>
<polygon fill="#c30000" stroke="black" points="373,-191.1 373,-227.1 427,-227.1 427,-191.1 373,-191.1"/>
<text text-anchor="middle" x="399.67" y="-204.9" font-family="Times,serif" font-size="14.00">photos</text>
</g>
<!-- photos&#45;&gt;open_gems_and_load_experiment_file -->
<g id="edge4" class="edge">
<title>photos-&gt;open_gems_and_load_experiment_file</title>
<path fill="none" stroke="black" d="M392.1,-190.93C386.02,-179.7 376.54,-165.7 364,-157.8 358.4,-154.27 349.04,-151.13 337.72,-148.37"/>
<polygon fill="black" stroke="black" points="338.83,-145.03 328.31,-146.27 337.3,-151.86 338.83,-145.03"/>
</g>
<!-- selected_electrode_channels -->
<g id="node6" class="node">
<title>selected_electrode_channels</title>
<polygon fill="#c30000" stroke="black" points="135.32,-41.3 135.32,-77.3 310.68,-77.3 310.68,-41.3 135.32,-41.3"/>
<text text-anchor="middle" x="223" y="-55.1" font-family="Times,serif" font-size="14.00">selected_electrode_channels</text>
</g>
<!-- open_gems_and_load_experiment_file&#45;&gt;selected_electrode_channels -->
<g id="edge5" class="edge">
<title>open_gems_and_load_experiment_file-&gt;selected_electrode_channels</title>
<path fill="none" stroke="black" d="M223,-113.37C223,-106.03 223,-97.29 223,-89.04"/>
<polygon fill="black" stroke="black" points="226.5,-89.04 223,-79.04 219.5,-89.04 226.5,-89.04"/>
</g>
</g>
</svg>