<svg xmlns="http://www.w3.org/2000/svg" xmlns:xlink="http://www.w3.org/1999/xlink" width="620pt" height="545pt" viewBox="0.00 0.00 620.00 544.60">
<g id="graph0" class="graph" transform="scale(1 1) rotate(0) translate(4 540.6)">
<title>G</title>
<polygon fill="#fdf1e4" stroke="none" points="-4,4 -4,-540.6 616,-540.6 616,4 -4,4"/>
<g id="clust1" class="cluster">
<title>cluster_inputs</title>
<polygon fill="#fdf1e4" stroke="black" stroke-dasharray="5,2" points="8,-450.8 8,-528.6 432,-528.6 432,-450.8 8,-450.8"/>
<text text-anchor="middle" x="375.98" y="-459" font-family="Times,serif" font-size="14.00">Workflow Inputs</text>
</g>
<g id="clust2" class="cluster">
<title>cluster_outputs</title>
<polygon fill="#fdf1e4" stroke="black" stroke-dasharray="5,2" points="112,-8 112,-85.8 604,-85.8 604,-8 112,-8"/>
<text text-anchor="middle" x="543.31" y="-16.2" font-family="Times,serif" font-size="14.00">Workflow Outputs</text>
</g>
<!-- intensity_mapping_and_clustering -->
<g id="node1" class="node">
<title>intensity_mapping_and_clustering</title>
<polygon fill="#4bccff" stroke="black" stroke-dasharray="5,2" points="44.18,-333.3 44.18,-369.3 253.82,-369.3 253.82,-333.3 44.18,-333.3"/>
<text text-anchor="middle" x="149" y="-347.1" font-family="Times,serif" font-size="14.00">intensity_mapping_and_clustering</text>
</g>
<!-- centreline_annotation -->
<g id="node2" class="node">
<title>centreline_annotation</title>
<polygon fill="#4bccff" stroke="black" stroke-dasharray="5,2" points="207.36,-260.3 207.36,-296.3 344.64,-296.3 344.64,-260.3 207.36,-260.3"/>
<text text-anchor="middle" x="276" y="-274.1" font-family="Times,serif" font-size="14.00">centreline_annotation</text>
</g>
<!-- intensity_mapping_and_clustering&#45;&gt;centreline_annotation -->
<g id="edge1" class="edge">
<title>intensity_mapping_and_clustering-&gt;centreline_annotation</title>
<path fill="none" stroke="black" d="M180.07,-332.93C196.67,-323.65 217.32,-312.1 235.21,-302.11"/>
<polygon fill="black" stroke="black" points="236.47,-305.41 243.49,-297.47 233.06,-299.3 236.47,-305.41"/>
</g>
<!-- clusters -->
<g id="node11" class="node">
<title>clusters</title>
<polygon fill="#c30000" stroke="black" points="119.62,-41.3 119.62,-77.3 178.38,-77.3 178.38,-41.3 119.62,-41.3"/>
<text text-anchor="middle" x="149" y="-55.1" font-family="Times,serif" font-size="14.00">clusters</text>
</g>
<!-- intensity_mapping_and_clustering&#45;&gt;clusters -->
<g id="edge14" class="edge">
<title>intensity_mapping_and_clustering-&gt;clusters</title>
<path fill="none" stroke="black" d="M149,-333.03C149,-284.77 149,-148.18 149,-88.64"/>
<polygon fill="black" stroke="black" points="152.5,-89 149,-79 145.5,-89 152.5,-89"/>
</g>
<!-- grow_into_clusters -->
<g id="node3" class="node">
<title>grow_into_clusters</title>
<polygon fill="#4bccff" stroke="black" stroke-dasharray="5,2" points="301.34,-187.3 301.34,-223.3 424.66,-223.3 424.66,-187.3 301.34,-187.3"/>
<text text-anchor="middle" x="363" y="-201.1" font-family="Times,serif" font-size="14.00">grow_into_clusters</text>
</g>
<!-- centreline_annotation&#45;&gt;grow_into_clusters -->
<g id="edge3" class="edge">
<title>centreline_annotation-&gt;grow_into_clusters</title>
<path fill="none" stroke="black" d="M291.18,-260.11C301.18,-251.2 314.52,-240.16 327.04,-230.4"/>
<polygon fill="black" stroke="black" points="328.93,-233.36 334.74,-224.5 324.68,-227.8 328.93,-233.36"/>
</g>
<!-- centreline_annotation&#45;&gt;grow_into_clusters -->
<g id="edge4" class="edge">
<title>centreline_annotation-&gt;grow_into_clusters</title>
<path fill="none" stroke="black" d="M302.94,-260.11C314.57,-251.37 327.98,-240.58 339.23,-230.97"/>
<polygon fill="black" stroke="black" points="341.34,-233.78 346.58,-224.57 336.74,-228.5 341.34,-233.78"/>
</g>
<!-- annotations_txt -->
<g id="node10" class="node">
<title>annotations_txt</title>
<polygon fill="#c30000" stroke="black" points="196.84,-41.3 196.84,-77.3 299.16,-77.3 299.16,-41.3 196.84,-41.3"/>
<text text-anchor="middle" x="248" y="-55.1" font-family="Times,serif" font-size="14.00">annotations_txt</text>
</g>
<!-- centreline_annotation&#45;&gt;annotations_txt -->
<g id="edge13" class="edge">
<title>centreline_annotation-&gt;annotations_txt</title>
<path fill="none" stroke="black" d="M273.76,-259.91C268.94,-222.61 257.59,-134.62 251.7,-88.94"/>
<polygon fill="black" stroke="black" points="255.2,-88.74 250.45,-79.28 248.26,-89.64 255.2,-88.74"/>
</g>
<!-- convert_ex_to_ip_ex2ip -->
<g id="node4" class="node">
<title>convert_ex_to_ip_ex2ip</title>
<polygon fill="#4bccff" stroke="black" stroke-dasharray="5,2" points="337.96,-114.3 337.96,-150.3 490.04,-150.3 490.04,-114.3 337.96,-114.3"/>
<text text-anchor="middle" x="414" y="-128.1" font-family="Times,serif" font-size="14.00">convert_ex_to_ip_ex2ip</text>
</g>
<!-- grow_into_clusters&#45;&gt;convert_ex_to_ip_ex2ip -->
<g id="edge2" class="edge">
<title>grow_into_clusters-&gt;convert_ex_to_ip_ex2ip</title>
<path fill="none" stroke="black" d="M375.35,-187.11C381.3,-178.83 388.56,-168.71 395.19,-159.49"/>
<polygon fill="black" stroke="black" points="397.89,-161.72 400.89,-151.56 392.21,-157.64 397.89,-161.72"/>
</g>
<!-- 1d_personalised_full_arterial_mesh_ip_format -->
<g id="node9" class="node">
<title>1d_personalised_full_arterial_mesh_ip_format</title>
<polygon fill="#c30000" stroke="black" points="317.59,-41.3 317.59,-77.3 596.41,-77.3 596.41,-41.3 317.59,-41.3"/>
<text text-anchor="middle" x="457" y="-55.1" font-family="Times,serif" font-size="14.00">1d_personalised_full_arterial_mesh_ip_format</text>
</g>
<!-- convert_ex_to_ip_ex2ip&#45;&gt;1d_personalised_full_arterial_mesh_ip_format -->
<g id="edge12" class="edge">
<title>convert_ex_to_ip_ex2ip-&gt;1d_personalised_full_arterial_mesh_ip_format</title>
<path fill="none" stroke="black" d="M424.41,-114.11C429.32,-106 435.3,-96.14 440.78,-87.08"/>
<polygon fill="black" stroke="black" points="443.72,-88.99 445.9,-78.62 437.73,-85.36 443.72,-88.99"/>
</g>
<!-- create_seed_points -->
<g id="node5" class="node">
<title>create_seed_points</title>
<polygon fill="#4bccff" stroke="black" stroke-dasharray="5,2" points="90.74,-406.3 90.74,-442.3 213.26,-442.3 213.26,-406.3 90.74,-406.3"/>
<text text-anchor="middle" x="152" y="-420.1" font-family="Times,serif" font-size="14.00">create_seed_points</text>
</g>
<!-- create_seed_points&#45;&gt;intensity_mapping_and_clustering -->
<g id="edge5" class="edge">
<title>create_seed_points-&gt;intensity_mapping_and_clustering</title>
<path fill="none" stroke="black" d="M151.27,-406.11C150.95,-398.44 150.56,-389.19 150.19,-380.54"/>
<polygon fill="black" stroke="black" points="153.7,-380.68 149.78,-370.84 146.71,-380.98 153.7,-380.68"/>
</g>
<!-- lobe_ply_meshes -->
<g id="node6" class="node">
<title>lobe_ply_meshes</title>
<polygon fill="#c30000" stroke="black" points="165.4,-484.1 165.4,-520.1 278.6,-520.1 278.6,-484.1 165.4,-484.1"/>
<text text-anchor="middle" x="222" y="-497.9" font-family="Times,serif" font-size="14.00">lobe_ply_meshes</text>
</g>
<!-- lobe_ply_meshes&#45;&gt;intensity_mapping_and_clustering -->
<g id="edge9" class="edge">
<title>lobe_ply_meshes-&gt;intensity_mapping_and_clustering</title>
<path fill="none" stroke="black" d="M226.46,-483.85C230.64,-463.89 234.57,-430.59 222,-405.8 215.89,-393.76 205.66,-383.77 194.76,-375.82"/>
<polygon fill="black" stroke="black" points="197.03,-373.13 186.78,-370.46 193.13,-378.94 197.03,-373.13"/>
</g>
<!-- lobe_ply_meshes&#45;&gt;centreline_annotation -->
<g id="edge6" class="edge">
<title>lobe_ply_meshes-&gt;centreline_annotation</title>
<path fill="none" stroke="black" d="M228.33,-483.93C237.28,-459.07 253.56,-411.49 263,-369.8 267.64,-349.3 270.96,-325.79 273.08,-307.87"/>
<polygon fill="black" stroke="black" points="276.56,-308.29 274.19,-297.97 269.6,-307.51 276.56,-308.29"/>
</g>
<!-- lobe_ply_meshes&#45;&gt;grow_into_clusters -->
<g id="edge8" class="edge">
<title>lobe_ply_meshes-&gt;grow_into_clusters</title>
<path fill="none" stroke="black" d="M237.46,-483.82C266.27,-450.46 327.6,-373.68 354,-296.8 360.86,-276.81 363.01,-252.97 363.5,-234.78"/>
<polygon fill="black" stroke="black" points="366.99,-235.02 363.59,-224.99 359.99,-234.95 366.99,-235.02"/>
</g>
<!-- lobe_ply_meshes&#45;&gt;create_seed_points -->
<g id="edge7" class="edge">
<title>lobe_ply_meshes-&gt;create_seed_points</title>
<path fill="none" stroke="black" d="M206.12,-483.9C197.14,-474.18 185.74,-461.84 175.73,-450.99"/>
<polygon fill="black" stroke="black" points="178.45,-448.78 169.09,-443.81 173.3,-453.53 178.45,-448.78"/>
</g>
<!-- mpa_segmentations -->
<g id="node7" class="node">
<title>mpa_segmentations</title>
<polygon fill="#c30000" stroke="black" points="296.4,-484.1 296.4,-520.1 423.6,-520.1 423.6,-484.1 296.4,-484.1"/>
<text text-anchor="middle" x="360" y="-497.9" font-family="Times,serif" font-size="14.00">mpa_segmentations</text>
</g>
<!-- mpa_segmentations&#45;&gt;centreline_annotation -->
<g id="edge10" class="edge">
<title>mpa_segmentations-&gt;centreline_annotation</title>
<path fill="none" stroke="black" d="M353.41,-483.7C338.9,-445.39 304.11,-353.52 286.54,-307.12"/>
<polygon fill="black" stroke="black" points="289.91,-306.15 283.1,-298.04 283.37,-308.63 289.91,-306.15"/>
</g>
<!-- masked_mha_image -->
<g id="node8" class="node">
<title>masked_mha_image</title>
<polygon fill="#c30000" stroke="black" points="16.46,-484.1 16.46,-520.1 147.54,-520.1 147.54,-484.1 16.46,-484.1"/>
<text text-anchor="middle" x="82" y="-497.9" font-family="Times,serif" font-size="14.00">masked_mha_image</text>
</g>
<!-- masked_mha_image&#45;&gt;intensity_mapping_and_clustering -->
<g id="edge11" class="edge">
<title>masked_mha_image-&gt;intensity_mapping_and_clustering</title>
<path fill="none" stroke="black" d="M77.73,-483.94C73.71,-464.06 69.95,-430.85 82,-405.8 87.53,-394.3 96.88,-384.5 106.86,-376.55"/>
<polygon fill="black" stroke="black" points="108.89,-379.4 114.89,-370.67 104.76,-373.76 108.89,-379.4"/>
</g>
</g>
</svg>