<svg xmlns="http://www.w3.org/2000/svg" xmlns:xlink="http://www.w3.org/1999/xlink" width="560pt" height="326pt" viewBox="0.00 0.00 560.00 325.60">
<g id="graph0" class="graph" transform="scale(1 1) rotate(0) translate(4 321.6)">
<title>G</title>
<polygon fill="#fdf1e4" stroke="none" points="-4,4 -4,-321.6 556,-321.6 556,4 -4,4"/>
<g id="clust1" class="cluster">
<title>cluster_inputs</title>
<polygon fill="#fdf1e4" stroke="black" stroke-dasharray="5,2" points="8,-231.8 8,-309.6 544,-309.6 544,-231.8 8,-231.8"/>
<text text-anchor="middle" x="487.98" y="-240" font-family="Times,serif" font-size="14.00">Workflow Inputs</text>
</g>
<g id="clust2" class="cluster">
<title>cluster_outputs</title>
<polygon fill="#fdf1e4" stroke="black" stroke-dasharray="5,2" points="172,-8 172,-85.8 352,-85.8 352,-8 172,-8"/>
<text text-anchor="middle" x="291.31" y="-16.2" font-family="Times,serif" font-size="14.00">Workflow Outputs</text>
</g>
<!-- baseline_perfusion_simulation_1d_cfd -->
<g id="node1" class="node">
<title>baseline_perfusion_simulation_1d_cfd</title>
<polygon fill="#4bccff" stroke="black" stroke-dasharray="5,2" points="145.13,-187.3 145.13,-223.3 378.87,-223.3 378.87,-187.3 145.13,-187.3"/>
<text text-anchor="middle" x="262" y="-201.1" font-family="Times,serif" font-size="14.00">baseline_perfusion_simulation_1d_cfd</text>
</g>
<!-- flow_intensity_analysis_and_comparison_to_baseline -->
<g id="node2" class="node">
<title>flow_intensity_analysis_and_comparison_to_baseline</title>
<polygon fill="#4bccff" stroke="black" stroke-dasharray="5,2" points="102.36,-114.3 102.36,-150.3 421.64,-150.3 421.64,-114.3 102.36,-114.3"/>
<text text-anchor="middle" x="262" y="-128.1" font-family="Times,serif" font-size="14.00">flow_intensity_analysis_and_comparison_to_baseline</text>
</g>
<!-- baseline_perfusion_simulation_1d_cfd&#45;&gt;flow_intensity_analysis_and_comparison_to_baseline -->
<g id="edge1" class="edge">
<title>baseline_perfusion_simulation_1d_cfd-&gt;flow_intensity_analysis_and_comparison_to_baseline</title>
<path fill="none" stroke="black" d="M244.37,-187.11C241.96,-179.44 241.21,-170.19 242.13,-161.54"/>
<polygon fill="black" stroke="black" points="245.55,-162.31 244.11,-151.81 238.69,-160.91 245.55,-162.31"/>
</g>
<!-- baseline_perfusion_simulation_1d_cfd&#45;&gt;flow_intensity_analysis_and_comparison_to_baseline -->
<g id="edge2" class="edge">
<title>baseline_perfusion_simulation_1d_cfd-&gt;flow_intensity_analysis_and_comparison_to_baseline</title>
<path fill="none" stroke="black" d="M256.12,-187.11C255.32,-179.44 255.07,-170.19 255.38,-161.54"/>
<polygon fill="black" stroke="black" points="258.85,-162.05 256.04,-151.84 251.87,-161.58 258.85,-162.05"/>
</g>
<!-- baseline_perfusion_simulation_1d_cfd&#45;&gt;flow_intensity_analysis_and_comparison_to_baseline -->
<g id="edge3" class="edge">
<title>baseline_perfusion_simulation_1d_cfd-&gt;flow_intensity_analysis_and_comparison_to_baseline</title>
<path fill="none" stroke="black" d="M267.88,-187.11C268.68,-179.44 268.93,-170.19 268.62,-161.54"/>
<polygon fill="black" stroke="black" points="272.13,-161.58 267.96,-151.84 265.15,-162.05 272.13,-161.58"/>
</g>
<!-- baseline_perfusion_simulation_1d_cfd&#45;&gt;flow_intensity_analysis_and_comparison_to_baseline -->
<g id="edge4" class="edge">
<title>baseline_perfusion_simulation_1d_cfd-&gt;flow_intensity_analysis_and_comparison_to_baseline</title>
<path fill="none" stroke="black" d="M279.63,-187.11C282.04,-179.44 282.79,-170.19 281.87,-161.54"/>
<polygon fill="black" stroke="black" points="285.31,-160.91 279.89,-151.81 278.45,-162.31 285.31,-160.91"/>
</g>
<!-- flow_comparison_log_file -->
<g id="node6" class="node">
<title>flow_comparison_log_file</title>
<polygon fill="#c30000" stroke="black" points="179.74,-41.3 179.74,-77.3 344.26,-77.3 344.26,-41.3 179.74,-41.3"/>
<text text-anchor="middle" x="262" y="-55.1" font-family="Times,serif" font-size="14.00">flow_comparison_log_file</text>
</g>
<!-- flow_intensity_analysis_and_comparison_to_baseline&#45;&gt;flow_comparison_log_file -->
<g id="edge9" class="edge">
<title>flow_intensity_analysis_and_comparison_to_baseline-&gt;flow_comparison_log_file</title>
<path fill="none" stroke="black" d="M262,-114.11C262,-106.53 262,-97.4 262,-88.84"/>
<polygon fill="black" stroke="black" points="265.5,-88.84 262,-78.84 258.5,-88.84 265.5,-88.84"/>
</g>
<!-- 1d_personalised_full_arterial_mesh_ip_format -->
<g id="node3" class="node">
<title>1d_personalised_full_arterial_mesh_ip_format</title>
<polygon fill="#c30000" stroke="black" points="15.59,-265.1 15.59,-301.1 294.41,-301.1 294.41,-265.1 15.59,-265.1"/>
<text text-anchor="middle" x="155" y="-278.9" font-family="Times,serif" font-size="14.00">1d_personalised_full_arterial_mesh_ip_format</text>
</g>
<!-- 1d_personalised_full_arterial_mesh_ip_format&#45;&gt;baseline_perfusion_simulation_1d_cfd -->
<g id="edge5" class="edge">
<title>1d_personalised_full_arterial_mesh_ip_format-&gt;baseline_perfusion_simulation_1d_cfd</title>
<path fill="none" stroke="black" d="M179.55,-264.71C194.09,-254.41 212.72,-241.21 228.59,-229.97"/>
<polygon fill="black" stroke="black" points="230.19,-233.12 236.33,-224.48 226.15,-227.41 230.19,-233.12"/>
</g>
<!-- patient_config_file_csv -->
<g id="node4" class="node">
<title>patient_config_file_csv</title>
<polygon fill="#c30000" stroke="black" points="311.91,-265.1 311.91,-301.1 460.09,-301.1 460.09,-265.1 311.91,-265.1"/>
<text text-anchor="middle" x="386" y="-278.9" font-family="Times,serif" font-size="14.00">patient_config_file_csv</text>
</g>
<!-- patient_config_file_csv&#45;&gt;baseline_perfusion_simulation_1d_cfd -->
<g id="edge6" class="edge">
<title>patient_config_file_csv-&gt;baseline_perfusion_simulation_1d_cfd</title>
<path fill="none" stroke="black" d="M357.55,-264.71C340.46,-254.26 318.5,-240.84 299.94,-229.49"/>
<polygon fill="black" stroke="black" points="301.96,-226.63 291.61,-224.4 298.31,-232.6 301.96,-226.63"/>
</g>
<!-- patient_config_file_csv&#45;&gt;flow_intensity_analysis_and_comparison_to_baseline -->
<g id="edge7" class="edge">
<title>patient_config_file_csv-&gt;flow_intensity_analysis_and_comparison_to_baseline</title>
<path fill="none" stroke="black" d="M391.88,-264.64C397.62,-244.18 403.43,-210.12 388,-186.8 379.05,-173.27 365.91,-163.16 351.46,-155.59"/>
<polygon fill="black" stroke="black" points="353.19,-152.54 342.65,-151.4 350.18,-158.86 353.19,-152.54"/>
</g>
<!-- clusters -->
<g id="node5" class="node">
<title>clusters</title>
<polygon fill="#c30000" stroke="black" points="477.62,-265.1 477.62,-301.1 536.38,-301.1 536.38,-265.1 477.62,-265.1"/>
<text text-anchor="middle" x="507" y="-278.9" font-family="Times,serif" font-size="14.00">clusters</text>
</g>
<!-- clusters&#45;&gt;flow_intensity_analysis_and_comparison_to_baseline -->
<g id="edge8" class="edge">
<title>clusters-&gt;flow_intensity_analysis_and_comparison_to_baseline</title>
<path fill="none" stroke="black" d="M495.83,-264.78C488.8,-254.58 479.16,-241.76 469,-231.8 444.69,-207.96 437.03,-202.84 407,-186.8 383.19,-174.08 355.7,-163.09 331.1,-154.44"/>
<polygon fill="black" stroke="black" points="332.41,-151.2 321.82,-151.25 330.13,-157.81 332.41,-151.2"/>
</g>
</g>
</svg>