<svg xmlns="http://www.w3.org/2000/svg" xmlns:xlink="http://www.w3.org/1999/xlink" width="667pt" height="252pt" viewBox="0.00 0.00 667.00 251.60">
<g id="graph0" class="graph" transform="scale(1 1) rotate(0) translate(4 247.6)">
<title>G</title>
<polygon fill="#fdf1e4" stroke="none" points="-4,4 -4,-247.6 663,-247.6 663,4 -4,4"/>
<g id="clust1" class="cluster">
<title>cluster_inputs</title>
<polygon fill="#fdf1e4" stroke="black" stroke-dasharray="5,2" points="8,-157.8 8,-235.6 651,-235.6 651,-157.8 8,-157.8"/>
<text text-anchor="middle" x="594.98" y="-166" font-family="Times,serif" font-size="14.00">Workflow Inputs</text>
</g>
<g id="clust2" class="cluster">
<title>cluster_outputs</title>
<polygon fill="#fdf1e4" stroke="black" stroke-dasharray="5,2" points="322,-8 322,-85.8 468,-85.8 468,-8 322,-8"/>
<text text-anchor="middle" x="407.31" y="-16.2" font-family="Times,serif" font-size="14.00">Workflow Outputs</text>
</g>
<!-- 1d_personalised_full_arterial_mesh_ip_format -->
<g id="node1" class="node">
<title>1d_personalised_full_arterial_mesh_ip_format</title>
<polygon fill="#c30000" stroke="black" points="15.59,-191.1 15.59,-227.1 294.41,-227.1 294.41,-191.1 15.59,-191.1"/>
<text text-anchor="middle" x="155" y="-204.9" font-family="Times,serif" font-size="14.00">1d_personalised_full_arterial_mesh_ip_format</text>
</g>
<!-- run_remodelling_disease -->
<g id="node4" class="node">
<title>run_remodelling_disease</title>
<ellipse fill="none" stroke="black" cx="395" cy="-131.8" rx="108.12" ry="18"/>
<text text-anchor="middle" x="395" y="-127.6" font-family="Times,serif" font-size="14.00">run_remodelling_disease</text>
</g>
<!-- 1d_personalised_full_arterial_mesh_ip_format&#45;&gt;run_remodelling_disease -->
<g id="edge1" class="edge">
<title>1d_personalised_full_arterial_mesh_ip_format-&gt;run_remodelling_disease</title>
<path fill="none" stroke="black" d="M204.44,-190.62C233.33,-180.6 270.58,-168.02 304,-157.8 311.76,-155.43 319.91,-153.04 328.03,-150.73"/>
<polygon fill="black" stroke="black" points="328.89,-154.12 337.57,-148.04 327,-147.38 328.89,-154.12"/>
</g>
<!-- flow_comparison_log_file -->
<g id="node2" class="node">
<title>flow_comparison_log_file</title>
<polygon fill="#c30000" stroke="black" points="312.74,-191.1 312.74,-227.1 477.26,-227.1 477.26,-191.1 312.74,-191.1"/>
<text text-anchor="middle" x="395" y="-204.9" font-family="Times,serif" font-size="14.00">flow_comparison_log_file</text>
</g>
<!-- flow_comparison_log_file&#45;&gt;run_remodelling_disease -->
<g id="edge2" class="edge">
<title>flow_comparison_log_file-&gt;run_remodelling_disease</title>
<path fill="none" stroke="black" d="M395,-190.64C395,-181.99 395,-171.32 395,-161.51"/>
<polygon fill="black" stroke="black" points="398.5,-161.68 395,-151.68 391.5,-161.68 398.5,-161.68"/>
</g>
<!-- patient_config_file_csv -->
<g id="node3" class="node">
<title>patient_config_file_csv</title>
<polygon fill="#c30000" stroke="black" points="494.91,-191.1 494.91,-227.1 643.09,-227.1 643.09,-191.1 494.91,-191.1"/>
<text text-anchor="middle" x="569" y="-204.9" font-family="Times,serif" font-size="14.00">patient_config_file_csv</text>
</g>
<!-- patient_config_file_csv&#45;&gt;run_remodelling_disease -->
<g id="edge3" class="edge">
<title>patient_config_file_csv-&gt;run_remodelling_disease</title>
<path fill="none" stroke="black" d="M544.55,-190.8C528.51,-180.09 506.74,-166.73 486,-157.8 479.78,-155.12 473.19,-152.66 466.52,-150.41"/>
<polygon fill="black" stroke="black" points="468.05,-147.22 457.45,-147.51 465.91,-153.89 468.05,-147.22"/>
</g>
<!-- remodelling_burden -->
<g id="node5" class="node">
<title>remodelling_burden</title>
<polygon fill="#c30000" stroke="black" points="330.24,-41.3 330.24,-77.3 459.76,-77.3 459.76,-41.3 330.24,-41.3"/>
<text text-anchor="middle" x="395" y="-55.1" font-family="Times,serif" font-size="14.00">remodelling_burden</text>
</g>
<!-- run_remodelling_disease&#45;&gt;remodelling_burden -->
<g id="edge4" class="edge">
<title>run_remodelling_disease-&gt;remodelling_burden</title>
<path fill="none" stroke="black" d="M395,-113.37C395,-106.03 395,-97.29 395,-89.04"/>
<polygon fill="black" stroke="black" points="398.5,-89.04 395,-79.04 391.5,-89.04 398.5,-89.04"/>
</g>
</g>
</svg>