<svg xmlns="http://www.w3.org/2000/svg" xmlns:xlink="http://www.w3.org/1999/xlink" width="318pt" height="252pt" viewBox="0.00 0.00 318.00 251.60">
<g id="graph0" class="graph" transform="scale(1 1) rotate(0) translate(4 247.6)">
<title>G</title>
<polygon fill="#fdf1e4" stroke="none" points="-4,4 -4,-247.6 314,-247.6 314,4 -4,4"/>
<g id="clust1" class="cluster">
<title>cluster_inputs</title>
<polygon fill="#fdf1e4" stroke="black" stroke-dasharray="5,2" points="8,-157.8 8,-235.6 302,-235.6 302,-157.8 8,-157.8"/>
<text text-anchor="middle" x="245.98" y="-166" font-family="Times,serif" font-size="14.00">Workflow Inputs</text>
</g>
<g id="clust2" class="cluster">
<title>cluster_outputs</title>
<polygon fill="#fdf1e4" stroke="black" stroke-dasharray="5,2" points="84,-8 84,-85.8 226,-85.8 226,-8 84,-8"/>
<text text-anchor="middle" x="165.31" y="-16.2" font-family="Times,serif" font-size="14.00">Workflow Outputs</text>
</g>
<!-- 1d_personalised_full_arterial_mesh_ip_format -->
<g id="node1" class="node">
<title>1d_personalised_full_arterial_mesh_ip_format</title>
<polygon fill="#c30000" stroke="black" points="15.59,-191.1 15.59,-227.1 294.41,-227.1 294.41,-191.1 15.59,-191.1"/>
<text text-anchor="middle" x="155" y="-204.9" font-family="Times,serif" font-size="14.00">1d_personalised_full_arterial_mesh_ip_format</text>
</g>
<!-- run_post_pea_prediction -->
<g id="node2" class="node">
<title>run_post_pea_prediction</title>
<ellipse fill="none" stroke="black" cx="155" cy="-131.8" rx="107.04" ry="18"/>
<text text-anchor="middle" x="155" y="-127.6" font-family="Times,serif" font-size="14.00">run_post_pea_prediction</text>
</g>
<!-- 1d_personalised_full_arterial_mesh_ip_format&#45;&gt;run_post_pea_prediction -->
<g id="edge1" class="edge">
<title>1d_personalised_full_arterial_mesh_ip_format-&gt;run_post_pea_prediction</title>
<path fill="none" stroke="black" d="M155,-190.64C155,-181.99 155,-171.32 155,-161.51"/>
<polygon fill="black" stroke="black" points="158.5,-161.68 155,-151.68 151.5,-161.68 158.5,-161.68"/>
</g>
<!-- pressure_prediction -->
<g id="node3" class="node">
<title>pressure_prediction</title>
<polygon fill="#c30000" stroke="black" points="91.8,-41.3 91.8,-77.3 218.2,-77.3 218.2,-41.3 91.8,-41.3"/>
<text text-anchor="middle" x="155" y="-55.1" font-family="Times,serif" font-size="14.00">pressure_prediction</text>
</g>
<!-- run_post_pea_prediction&#45;&gt;pressure_prediction -->
<g id="edge2" class="edge">
<title>run_post_pea_prediction-&gt;pressure_prediction</title>
<path fill="none" stroke="black" d="M155,-113.37C155,-106.03 155,-97.29 155,-89.04"/>
<polygon fill="black" stroke="black" points="158.5,-89.04 155,-79.04 151.5,-89.04 158.5,-89.04"/>
</g>
</g>
</svg>