<svg xmlns="http://www.w3.org/2000/svg" xmlns:xlink="http://www.w3.org/1999/xlink" width="179pt" height="252pt" viewBox="0.00 0.00 179.00 251.60">
<g id="graph0" class="graph" transform="scale(1 1) rotate(0) translate(4 247.6)">
<title>G</title>
<polygon fill="#fdf1e4" stroke="none" points="-4,4 -4,-247.6 175,-247.6 175,4 -4,4"/>
<g id="clust1" class="cluster">
<title>cluster_inputs</title>
<polygon fill="#fdf1e4" stroke="black" stroke-dasharray="5,2" points="21,-157.8 21,-235.6 163,-235.6 163,-157.8 21,-157.8"/>
<text text-anchor="middle" x="106.98" y="-166" font-family="Times,serif" font-size="14.00">Workflow Inputs</text>
</g>
<g id="clust2" class="cluster">
<title>cluster_outputs</title>
<polygon fill="#fdf1e4" stroke="black" stroke-dasharray="5,2" points="8,-8 8,-85.8 129,-85.8 129,-8 8,-8"/>
<text text-anchor="middle" x="68.31" y="-16.2" font-family="Times,serif" font-size="14.00">Workflow Outputs</text>
</g>
<!-- dicom -->
<g id="node1" class="node">
<title>dicom</title>
<polygon fill="#c30000" stroke="black" points="29,-191.1 29,-227.1 83,-227.1 83,-191.1 29,-191.1"/>
<text text-anchor="middle" x="56" y="-204.9" font-family="Times,serif" font-size="14.00">dicom</text>
</g>
<!-- locate_tumour -->
<g id="node3" class="node">
<title>locate_tumour</title>
<ellipse fill="none" stroke="black" cx="68" cy="-131.8" rx="66.81" ry="18"/>
<text text-anchor="middle" x="68" y="-127.6" font-family="Times,serif" font-size="14.00">locate_tumour</text>
</g>
<!-- dicom&#45;&gt;locate_tumour -->
<g id="edge1" class="edge">
<title>dicom-&gt;locate_tumour</title>
<path fill="none" stroke="black" d="M58.78,-190.64C60.16,-181.99 61.86,-171.32 63.42,-161.51"/>
<polygon fill="black" stroke="black" points="66.88,-162.09 64.99,-151.66 59.96,-160.99 66.88,-162.09"/>
</g>
<!-- mesh -->
<g id="node2" class="node">
<title>mesh</title>
<polygon fill="#c30000" stroke="black" points="101,-191.1 101,-227.1 155,-227.1 155,-191.1 101,-191.1"/>
<text text-anchor="middle" x="127.78" y="-204.9" font-family="Times,serif" font-size="14.00">mesh</text>
</g>
<!-- mesh&#45;&gt;locate_tumour -->
<g id="edge2" class="edge">
<title>mesh-&gt;locate_tumour</title>
<path fill="none" stroke="black" d="M116.59,-190.88C110.85,-182.5 103.54,-172.24 91.68,-157.86"/>
<polygon fill="black" stroke="black" points="94.69,-156.01 85.58,-150.6 89.33,-160.51 94.69,-156.01"/>
</g>
<!-- tumour_centre -->
<g id="node4" class="node">
<title>tumour_centre</title>
<polygon fill="#c30000" stroke="black" points="19.18,-41.3 19.18,-77.3 116.82,-77.3 116.82,-41.3 19.18,-41.3"/>
<text text-anchor="middle" x="68" y="-55.1" font-family="Times,serif" font-size="14.00">tumour_centre</text>
</g>
<!-- locate_tumour&#45;&gt;tumour_centre -->
<g id="edge3" class="edge">
<title>locate_tumour-&gt;tumour_centre</title>
<path fill="none" stroke="black" d="M68,-113.37C68,-106.03 68,-97.29 68,-89.04"/>
<polygon fill="black" stroke="black" points="71.5,-89.04 68,-79.04 64.5,-89.04 71.5,-89.04"/>
</g>
</g>
</svg>